<svg xmlns="http://www.w3.org/2000/svg" xmlns:xlink="http://www.w3.org/1999/xlink" width="157px" height="40px" viewBox="0 0 156.78 40"><defs><linearGradient id="a" x1="6.01" y1="23.14" x2="35.18" y2="-6.03" gradientUnits="userSpaceOnUse"><stop offset="0" stop-color="#bd2e2e"/><stop offset="1" stop-color="#881d1e"/></linearGradient><linearGradient id="b" x1="16.62" y1="20" x2="53.52" y2="20" gradientUnits="userSpaceOnUse"><stop offset="0" stop-color="#bd2e2e"/><stop offset="1" stop-color="#e84f1c"/></linearGradient></defs><path d="M4.71,0A4.71,4.71,0,0,0,.64,7.06L8,19.63,15.12,32a4.71,4.71,0,0,0,8.16,0L33.62,14.2,41.21,0H4.71Z" style="fill:url(#a)"/><path d="M38.48,0H30.77a4.7,4.7,0,0,1,4.08,7.06l-2.52,4.52-1.45,2.61H20.81a4.17,4.17,0,0,0-3.62,6.26l1.06,1.84,8.9,15.42a4.6,4.6,0,0,0,8,0L44,22.29,52.9,6.88a4.59,4.59,0,0,0-4-6.88Z" style="fill:url(#b)"/><path d="M79.57,4.07V7.92H70.46v6.89h7v3.86h-7V29.48H66.6V4.07Zm3.09,0V29.48h13V25.63h-9.1v-7h7V14.81h-7V7.92h9.1V4.07Zm22.82,25.64.49,0a9,9,0,0,0,5.79-1.93,6.82,6.82,0,0,0,2.73-5.12,5.89,5.89,0,0,0-1.26-3.92q-2-2.57-6.64-3.88-5.2-1.45-5.1-3.85a3.1,3.1,0,0,1,2-2.92,6.87,6.87,0,0,1,3-.44,5.33,5.33,0,0,1,3.86,1.6l2.82-2.63a9,9,0,0,0-6.5-2.82,9.8,9.8,0,0,0-5.72,1.29,6.63,6.63,0,0,0-3.29,5.74q-.24,5.48,7.91,7.76,5.2,1.45,5.09,3.89a3.1,3.1,0,0,1-1.29,2.28,5.33,5.33,0,0,1-3.68,1.08,6.59,6.59,0,0,1-2.66-.69,3.61,3.61,0,0,1-1.83-1.9L97.54,24.6a7.23,7.23,0,0,0,3.29,3.77,10,10,0,0,0,4.65,1.34M131.54,4.07,115.47,29.48H120l3.75-5.93h8.63v5.93h3.87V4.07Zm.87,5.84V19.7h-6.2Zm20.05,16A8.79,8.79,0,0,1,146,23.2a8.79,8.79,0,0,1-2.66-6.43A8.76,8.76,0,0,1,146,10.34a8.73,8.73,0,0,1,6.43-2.68,8.89,8.89,0,0,1,4.32,1.09V4.53a12.94,12.94,0,0,0-4.32-.73,12.5,12.5,0,0,0-9.16,3.8,12.46,12.46,0,0,0-3.8,9.17,12.46,12.46,0,0,0,3.8,9.16,12.46,12.46,0,0,0,9.16,3.8,13,13,0,0,0,4.32-.74V24.78a9,9,0,0,1-4.32,1.08" style="fill:#bd2e2e"/><path d="M68.52,32.08v.44H67.33v1h1.19V34H67.33v1.48h-.44V32.08Zm1.57,1a1.21,1.21,0,0,0-1.21,1.21,1.16,1.16,0,0,0,.36.85,1.21,1.21,0,0,0,1.7,0,1.15,1.15,0,0,0,.35-.85,1.2,1.2,0,0,0-1.2-1.21m-.54.67a.73.73,0,0,1,.54-.22.69.69,0,0,1,.53.22.73.73,0,0,1,.22.54.71.71,0,0,1-.22.53.69.69,0,0,1-.53.22.73.73,0,0,1-.54-.22.75.75,0,0,1-.22-.53.77.77,0,0,1,.22-.54m2.69-.49H71.8v2.18h.44V34.34a.76.76,0,0,1,.22-.5.62.62,0,0,1,.39-.15v-.46a.81.81,0,0,0-.61.35Zm1.09,2.18h.44V34a.56.56,0,0,1,.07-.34.29.29,0,0,1,.19-.08c.18,0,.26.11.26.32v1.54h.44V34.2a.93.93,0,0,1,.08-.51.27.27,0,0,1,.19-.08c.17,0,.26.11.26.32v1.54h.44V33.73c0-.37-.16-.56-.46-.56s-.51.12-.58.37a.36.36,0,0,0-.4-.37.48.48,0,0,0-.49.32v-.2h-.44Zm4.9-2a1,1,0,0,0-.74-.33,1.21,1.21,0,1,0,0,2.41,1,1,0,0,0,.74-.32v.27h.44V33.29h-.44v.15m0,1a.76.76,0,0,1-1.28.37.75.75,0,0,1-.22-.53.73.73,0,0,1,.22-.53.74.74,0,0,1,1.07,0,.73.73,0,0,1,.21.37v.32m2.8.24-.11.13a.73.73,0,0,1-.54.22.71.71,0,0,1-.53-.22.76.76,0,0,1,0-1.07.71.71,0,0,1,.53-.22.73.73,0,0,1,.54.22l.11.14.44-.17c-.11-.14-.18-.24-.23-.29a1.22,1.22,0,0,0-1.71,0,1.21,1.21,0,0,0-.35.86,1.19,1.19,0,0,0,.35.85,1.22,1.22,0,0,0,1.71,0,3.41,3.41,0,0,0,.23-.3L81,34.72m1.42-2.24a.29.29,0,0,0-.22-.09.29.29,0,0,0-.3.31.35.35,0,0,0,.08.22.33.33,0,0,0,.22.09.29.29,0,0,0,.22-.09.31.31,0,0,0,.09-.22.29.29,0,0,0-.09-.22m0,.81H82v2.18h.44Zm1.75-.18a1.19,1.19,0,0,0-.85.35,1.21,1.21,0,0,0-.35.86,1.17,1.17,0,0,0,.35.85,1.22,1.22,0,0,0,1.71,0,1.17,1.17,0,0,0,.35-.85,1.21,1.21,0,0,0-.35-.86,1.19,1.19,0,0,0-.86-.35m-.53.67a.76.76,0,0,1,1.29.54.71.71,0,0,1-.22.53.76.76,0,0,1-1.07,0,.71.71,0,0,1-.22-.53.73.73,0,0,1,.22-.54m.2-.7h.42l.58-.59h-.54Zm2.49.79a.45.45,0,0,1,.1-.13.48.48,0,0,1,.32-.13.49.49,0,0,1,.33.13.45.45,0,0,1,.14.32v1.41h.44V34.05a1,1,0,0,0-.22-.63.68.68,0,0,0-.56-.25.53.53,0,0,0-.55.37v-.25h-.44v2.18h.44v-1.6m5.4-.58h-.49l-.55,1.19-.55-1.19h-.5L90.49,35,89.9,36.2h.47Zm2-1.21v3.39h1.82V35H94.19V34h1.38v-.44H94.19v-1h1.38v-.44ZM96.59,35a.48.48,0,0,1-.06-.14L96.1,35a.66.66,0,0,0,.19.36.69.69,0,0,0,.49.21.71.71,0,0,0,.5-.21.66.66,0,0,0,.2-.5.64.64,0,0,0-.2-.49,1.64,1.64,0,0,0-.38-.26l-.19-.14a.12.12,0,0,1,0-.1.14.14,0,0,1,0-.11.18.18,0,0,1,.12-.05.1.1,0,0,1,.09,0s0,0,0,.07l.42-.12a.46.46,0,0,0-.15-.26.54.54,0,0,0-.4-.17.57.57,0,0,0-.42.17.6.6,0,0,0-.18.43.54.54,0,0,0,.18.41,1.08,1.08,0,0,0,.33.23,1.68,1.68,0,0,1,.23.17.23.23,0,0,1,.07.18A.26.26,0,0,1,97,35a.27.27,0,0,1-.19.08.29.29,0,0,1-.19-.08m1.34-1.71v.44h.39v1.74h.44V33.73h.39v-.44h-.39v-.82h-.44v.82Zm2.66,2.21a.87.87,0,0,0,.9-.89V33.29h-.44V34.6a.43.43,0,0,1-.14.32.44.44,0,0,1-.33.13.47.47,0,0,1-.34-.13.45.45,0,0,1-.14-.32V33.29h-.44v1.32a.91.91,0,0,0,.26.64.94.94,0,0,0,.67.25M104,33.44a1,1,0,0,0-.74-.33,1.19,1.19,0,0,0-.86.35,1.21,1.21,0,0,0-.35.86,1.19,1.19,0,0,0,.35.85,1.15,1.15,0,0,0,.86.35,1,1,0,0,0,.74-.32v.27h.44V32.08H104v1.36m0,1a.73.73,0,0,1-.21.37.71.71,0,0,1-.53.22.73.73,0,0,1-.54-.22.71.71,0,0,1-.22-.53.75.75,0,0,1,.76-.76.71.71,0,0,1,.53.22.82.82,0,0,1,.21.37v.33m1.55-2a.33.33,0,0,0-.22-.09.31.31,0,0,0-.31.31.31.31,0,0,0,.09.22.29.29,0,0,0,.22.09.33.33,0,0,0,.22-.09.31.31,0,0,0,.09-.22.29.29,0,0,0-.09-.22m0,.81h-.44v2.18h.44Zm1.75-.18a1.15,1.15,0,0,0-.85.35,1.18,1.18,0,0,0-.36.86,1.16,1.16,0,0,0,.36.85,1.12,1.12,0,0,0,.85.35,1.13,1.13,0,0,0,.85-.35,1.15,1.15,0,0,0,.35-.85,1.2,1.2,0,0,0-1.2-1.21m-.54.67a.73.73,0,0,1,.54-.22.71.71,0,0,1,.53.22.73.73,0,0,1,.22.54.75.75,0,0,1-.75.75.73.73,0,0,1-.54-.22.75.75,0,0,1-.22-.53.77.77,0,0,1,.22-.54M109.47,35a.48.48,0,0,1-.06-.14L109,35a.69.69,0,0,0,1.18.36.7.7,0,0,0,.2-.5.68.68,0,0,0-.2-.49,1.74,1.74,0,0,0-.39-.26l-.18-.14a.12.12,0,0,1,0-.1.14.14,0,0,1,0-.11.16.16,0,0,1,.11-.05.12.12,0,0,1,.1,0,.15.15,0,0,1,0,.07l.43-.12a.46.46,0,0,0-.15-.26.55.55,0,0,0-.41-.17.61.61,0,0,0-.42.17.63.63,0,0,0-.17.43.57.57,0,0,0,.17.41,1.31,1.31,0,0,0,.34.23,2.76,2.76,0,0,1,.23.17.27.27,0,0,1,.07.18.27.27,0,0,1-.08.19.25.25,0,0,1-.18.08.29.29,0,0,1-.19-.08m3.79-1.27a1.26,1.26,0,0,1,.43.27.63.63,0,0,1,.18.45.6.6,0,0,1-.18.43.6.6,0,0,1-.88,0,.84.84,0,0,1-.19-.53l-.43.16a1.17,1.17,0,0,0,.31.68,1.06,1.06,0,0,0,1.5,0,1,1,0,0,0,.31-.74,1,1,0,0,0-.31-.75,1.68,1.68,0,0,0-.68-.41,1.18,1.18,0,0,1-.32-.21.36.36,0,0,1,0-.5.34.34,0,0,1,.5,0,.62.62,0,0,1,.13.25l.4-.16a.93.93,0,0,0-.22-.4.8.8,0,0,0-1.12,0,.75.75,0,0,0-.23.56.74.74,0,0,0,.22.55,1.45,1.45,0,0,0,.58.35m3.36-.29a1,1,0,0,0-.73-.33,1.21,1.21,0,1,0,0,2.41,1,1,0,0,0,.73-.32v.27h.44V33.29h-.44v.15m0,1a.65.65,0,0,1-.2.37.71.71,0,0,1-.53.22.73.73,0,0,1-.54-.22.71.71,0,0,1-.22-.53.69.69,0,0,1,.22-.53.74.74,0,0,1,.54-.23.72.72,0,0,1,.53.23.65.65,0,0,1,.2.37v.32m3-1a1,1,0,0,0-.74-.33,1.2,1.2,0,0,0-1.21,1.21,1.15,1.15,0,0,0,.35.84,1.2,1.2,0,0,0,.86.34.72.72,0,0,0,.7-.4q-.19.69-.72.69a.73.73,0,0,1-.54-.22l-.11-.13-.44.16.23.29a1.33,1.33,0,0,0,1.71,0,1.33,1.33,0,0,0,.35-1V33.29h-.44v.15m0,1.05a.62.62,0,0,1-.2.36.76.76,0,0,1-1.07,0,.71.71,0,0,1-.22-.53.76.76,0,0,1,1.29-.54.65.65,0,0,1,.2.37Zm1.53-1.2h-.44v2.18h.44V34.34a.72.72,0,0,1,.22-.5.59.59,0,0,1,.38-.15v-.46a.79.79,0,0,0-.6.35Zm2.92.15a1,1,0,0,0-.74-.33,1.21,1.21,0,1,0,0,2.41,1,1,0,0,0,.74-.32v.27h.44V33.29H124v.15m0,1a.71.71,0,0,1-.2.37.73.73,0,0,1-.54.22.75.75,0,0,1-.75-.75.69.69,0,0,1,.22-.53.72.72,0,0,1,.53-.23.74.74,0,0,1,.54.23.71.71,0,0,1,.2.37v.32m3-1a1,1,0,0,0-.74-.33,1.2,1.2,0,0,0-1.2,1.21,1.15,1.15,0,0,0,.35.85,1.13,1.13,0,0,0,.85.35,1,1,0,0,0,.74-.32v.27h.44V32.08H127v1.36m0,1a.61.61,0,0,1-.21.37.75.75,0,0,1-1.06,0,.72.72,0,0,1-.23-.53.74.74,0,0,1,.23-.54.75.75,0,0,1,1.06,0,.67.67,0,0,1,.21.37v.33m2.15-1.37a1.19,1.19,0,0,0-.85.35,1.21,1.21,0,0,0-.35.86,1.19,1.19,0,0,0,.35.85,1.22,1.22,0,0,0,1.71,0,1.19,1.19,0,0,0,.35-.85,1.21,1.21,0,0,0-.35-.86,1.19,1.19,0,0,0-.86-.35m-.53.67a.76.76,0,0,1,1.29.54.71.71,0,0,1-.22.53.76.76,0,0,1-1.07,0,.71.71,0,0,1-.22-.53.73.73,0,0,1,.22-.54M131.32,35a.23.23,0,0,1-.06-.14l-.44.09a.74.74,0,0,0,.19.36.71.71,0,0,0,.5.21.69.69,0,0,0,.49-.21.67.67,0,0,0,.21-.5.65.65,0,0,0-.21-.49,1.44,1.44,0,0,0-.38-.26l-.18-.14a.12.12,0,0,1,0-.1.14.14,0,0,1,0-.11.16.16,0,0,1,.11-.05.12.12,0,0,1,.1,0,.15.15,0,0,1,0,.07l.43-.12a.46.46,0,0,0-.15-.26.55.55,0,0,0-.41-.17.58.58,0,0,0-.59.6.53.53,0,0,0,.17.41,1.31,1.31,0,0,0,.34.23,1.41,1.41,0,0,1,.22.17.23.23,0,0,1,.08.18.27.27,0,0,1-.08.19.25.25,0,0,1-.18.08.27.27,0,0,1-.19-.08m5.55-.34a1.41,1.41,0,0,1-.94.41,1.24,1.24,0,0,1-.91-.38,1.29,1.29,0,0,1,0-1.83,1.24,1.24,0,0,1,.91-.38,1.41,1.41,0,0,1,.94.41l.33-.3a1.86,1.86,0,0,0-1.27-.55,1.74,1.74,0,0,0-1.23,3,1.71,1.71,0,0,0,1.23.5A1.86,1.86,0,0,0,137.2,35l-.33-.29m1.94-1.55a1.15,1.15,0,0,0-.85.35,1.18,1.18,0,0,0-.36.86,1.16,1.16,0,0,0,.36.85,1.12,1.12,0,0,0,.85.35,1.15,1.15,0,0,0,.85-.35,1.19,1.19,0,0,0,.35-.85,1.21,1.21,0,0,0-.35-.86,1.19,1.19,0,0,0-.85-.35m-.54.67a.76.76,0,0,1,1.29.54.71.71,0,0,1-.22.53.76.76,0,0,1-1.07,0,.71.71,0,0,1-.22-.53.73.73,0,0,1,.22-.54m2.69-.49h-.44v2.18H141V34.34a.76.76,0,0,1,.22-.5.62.62,0,0,1,.38-.15v-.46a.79.79,0,0,0-.6.35Zm2.92.15a1,1,0,0,0-.74-.33,1.21,1.21,0,1,0,0,2.41,1,1,0,0,0,.74-.32v.27h.44V33.29h-.44v.15m0,1a.71.71,0,0,1-.2.37.73.73,0,0,1-.54.22.71.71,0,0,1-.53-.22.72.72,0,0,1-.23-.53.7.7,0,0,1,.23-.53.72.72,0,0,1,.53-.23.74.74,0,0,1,.54.23.71.71,0,0,1,.2.37v.32m1.08,1h1.73V35h-1l1-1.74h-1.66v.44h.9Zm3.46-2.36a1.19,1.19,0,0,0-.85.35,1.17,1.17,0,0,0-.35.86,1.2,1.2,0,0,0,1.2,1.2,1.13,1.13,0,0,0,.85-.35,1.16,1.16,0,0,0,.36-.85,1.21,1.21,0,0,0-1.21-1.21m-.53.67a.69.69,0,0,1,.53-.22.73.73,0,0,1,.54.22.77.77,0,0,1,.22.54.75.75,0,0,1-.22.53.73.73,0,0,1-.54.22.69.69,0,0,1-.53-.22.72.72,0,0,1-.23-.53.74.74,0,0,1,.23-.54m2.69.09a.45.45,0,0,1,.1-.13.46.46,0,0,1,.32-.13.49.49,0,0,1,.33.13.45.45,0,0,1,.14.32v1.41h.44V34.05a1,1,0,0,0-.22-.63.68.68,0,0,0-.56-.25.53.53,0,0,0-.55.37v-.25h-.44v2.18h.44v-1.6m3.8,0,.22-.22-.12-.14-.1-.09a1.14,1.14,0,0,0-.75-.26,1.21,1.21,0,0,0-1.21,1.21,1.16,1.16,0,0,0,.36.85,1.13,1.13,0,0,0,.85.35,1.15,1.15,0,0,0,.85-.35,2.61,2.61,0,0,0,.23-.29l-.43-.16-.12.13a.69.69,0,0,1-.53.22.57.57,0,0,1-.4-.1Zm-1.45.83a.59.59,0,0,1-.06-.33.77.77,0,0,1,.22-.54.73.73,0,0,1,.54-.22.59.59,0,0,1,.33.06Zm2.74.35a.23.23,0,0,1-.06-.14l-.44.09a.66.66,0,0,0,.19.36.69.69,0,0,0,.49.21.71.71,0,0,0,.5-.21.7.7,0,0,0,.2-.5.68.68,0,0,0-.2-.49,1.53,1.53,0,0,0-.39-.26l-.18-.14a.12.12,0,0,1,0-.1.14.14,0,0,1,0-.11.16.16,0,0,1,.11-.05.12.12,0,0,1,.1,0,.09.09,0,0,1,0,.07l.43-.12a.46.46,0,0,0-.15-.26.57.57,0,0,0-.41-.17.61.61,0,0,0-.42.17.63.63,0,0,0-.17.43.57.57,0,0,0,.17.41,1.31,1.31,0,0,0,.34.23,1.68,1.68,0,0,1,.23.17.23.23,0,0,1,.07.18A.26.26,0,0,1,156,35a.27.27,0,0,1-.19.08.25.25,0,0,1-.18-.08" style="fill:#858686"/></svg>